<?xml version="1.0" standalone="no"?>
<!DOCTYPE svg PUBLIC "-//W3C//DTD SVG 20010904//EN"
 "http://www.w3.org/TR/2001/REC-SVG-20010904/DTD/svg10.dtd">
<svg version="1.0" xmlns="http://www.w3.org/2000/svg"
 width="54.000000pt" height="54.000000pt" viewBox="0 0 54.000000 54.000000"
 preserveAspectRatio="xMidYMid meet">

<g transform="translate(0.000000,54.000000) scale(0.100000,-0.100000)"
fill="#000000" stroke="none">
<path d="M147 498 c-87 -19 -98 -23 -103 -45 -4 -13 -2 -29 4 -35 7 -7 5 -17
-8 -31 -21 -22 -26 -102 -8 -124 7 -9 5 -17 -6 -28 -34 -34 -27 -43 111 -138
l112 -78 103 42 c57 23 107 46 112 50 4 4 -1 12 -13 19 -15 7 -20 8 -19 0 3
-10 -142 -78 -168 -80 -6 0 -11 7 -11 15 0 9 37 28 101 53 55 21 101 43 103
49 2 5 -7 14 -19 20 l-23 11 29 11 c23 9 26 14 16 26 -15 18 -7 31 31 50 16 9
27 20 23 26 -3 6 -11 6 -17 1 -20 -15 -168 -65 -174 -58 -3 3 3 8 13 12 10 3
48 17 82 31 35 13 72 25 83 26 24 2 25 23 2 36 -14 8 -15 11 -4 25 8 9 12 18
10 20 -9 8 -189 96 -196 95 -5 0 34 -22 86 -48 l94 -48 -112 -28 c-111 -27
-143 -47 -125 -77 8 -13 9 -14 -101 57 -127 82 -135 106 -38 125 100 20 169
38 148 38 -11 0 -64 -9 -118 -20z m32 -172 c75 -48 87 -53 115 -45 45 13 53
11 28 -7 -12 -8 -20 -20 -17 -25 10 -15 -1 -11 -130 53 -69 35 -125 68 -125
74 0 16 22 23 35 12 5 -4 48 -32 94 -62z m301 39 c0 -14 -14 -19 -115 -43 -93
-23 -95 -23 -95 -7 0 8 12 17 28 21 15 3 54 14 87 25 74 22 95 23 95 4z m-403
-31 c19 -14 37 -24 40 -20 3 3 37 -11 77 -31 61 -31 68 -37 50 -44 -24 -8 -38
-35 -27 -51 9 -16 -10 -3 -104 70 -53 41 -83 70 -83 83 0 25 6 24 47 -7z m39
-96 c38 -35 62 -54 54 -43 -15 20 -15 20 9 0 17 -15 20 -21 8 -23 -24 -5 -38
-47 -20 -64 13 -14 21 -14 70 -1 30 8 57 12 60 10 2 -3 -9 -8 -25 -12 -31 -6
-47 -28 -36 -47 11 -17 -9 -6 -109 62 -73 49 -96 70 -97 88 0 34 18 27 73 -30
55 -58 48 -45 -25 45 -47 56 -57 77 -39 77 4 0 39 -28 77 -62z m324 7 c0 -8
-17 -19 -42 -25 -24 -6 -65 -18 -92 -26 -64 -18 -66 -18 -66 6 0 12 7 21 18
21 9 1 33 3 52 4 19 2 51 10 70 19 44 19 60 20 60 1z m-30 -64 c0 -13 -216
-68 -227 -58 -3 4 -3 14 1 23 4 11 13 14 29 10 13 -3 52 3 88 14 71 20 109 25
109 11z"/>
<path d="M120 307 c0 -2 21 -18 48 -36 35 -25 40 -26 17 -6 -30 26 -65 49 -65
42z"/>
<path d="M120 436 c0 -3 9 -10 20 -16 11 -6 20 -8 20 -6 0 3 -9 10 -20 16 -11
6 -20 8 -20 6z"/>
<path d="M170 406 c0 -3 9 -10 20 -16 11 -6 20 -8 20 -6 0 3 -9 10 -20 16 -11
6 -20 8 -20 6z"/>
<path d="M220 376 c0 -3 9 -10 20 -16 11 -6 20 -8 20 -6 0 3 -9 10 -20 16 -11
6 -20 8 -20 6z"/>
</g>
</svg>
